<?xml version="1.0" encoding="UTF-8"?>
<svg xmlns="http://www.w3.org/2000/svg" xmlns:xlink="http://www.w3.org/1999/xlink" width="0" height="0">
<symbol id="icon-arrow" width="26" height="20"><g fill="none" fill-rule="evenodd" stroke-width="2"><path d="M15 1l9 9-9 9M0 10h24"/></g></symbol>
<symbol id="icon-close" width="20" height="21"><path fill-rule="evenodd" d="M17.425.954l2.12 2.121-7.424 7.425 7.425 7.425-2.121 2.12L10 12.622l-7.425 7.425-2.12-2.121L7.878 10.5.454 3.075 2.575.955 10 8.378 17.425.954z"/></symbol>
<symbol id="icon-hamburger" width="24" height="17"><g fill-rule="evenodd"><path d="M0 0h24v3H0zM0 7h24v3H0zM0 14h24v3H0z"/></g></symbol>
<symbol id="icon-linkedin" width="40" height="40"><path d="M36 0H4C1.8 0 0 1.8 0 4v32c0 2.2 1.8 4 4 4h32c2.2 0 4-1.8 4-4V4c0-2.2-1.8-4-4-4zM12 34H6V16h6v18zM9 12.6C7 12.6 5.4 11 5.4 9S7 5.4 9 5.4 12.6 7 12.6 9 11 12.6 9 12.6zM34 34h-6V23.4c0-1.6-1.4-3-3-3s-3 1.4-3 3V34h-6V16h6v2.4c1-1.6 3.2-2.8 5-2.8 3.8 0 7 3.2 7 7V34z"/></symbol>
<symbol id="icon-twitter" width="40" height="33"><path d="M40 4.262a16.384 16.384 0 01-4.713 1.291 8.22 8.22 0 003.608-4.54 16.44 16.44 0 01-5.212 1.992 8.193 8.193 0 00-5.99-2.592c-5.298 0-9.191 4.944-7.995 10.075C12.88 10.147 6.833 6.88 2.785 1.915.635 5.603 1.67 10.428 5.323 12.872a8.172 8.172 0 01-3.715-1.027c-.09 3.802 2.635 7.358 6.582 8.15a8.225 8.225 0 01-3.707.14 8.213 8.213 0 007.667 5.698A16.5 16.5 0 010 29.233a23.232 23.232 0 0012.58 3.687c15.237 0 23.845-12.868 23.325-24.41A16.708 16.708 0 0040 4.262z"/></symbol>
<symbol id="icon-logo" width="97" height="40"><path d="M10.822 39.27l2.26-6.256h13.836l2.26 6.255H40L24.658 1.6h-9.316L0 39.268h10.822zM23.493 24.2h-6.986L20 15.252l3.493 8.95zm21.804 15.07V27.807c0-.776.22-1.499.662-2.169a5.14 5.14 0 011.746-1.632A4.51 4.51 0 0150 23.379c.64 0 1.343.13 2.112.388.769.259 1.434.601 1.998 1.028l3.972-7.991c-.654-.487-1.484-.883-2.488-1.188-1.005-.304-1.956-.456-2.854-.456-1.385 0-2.729.354-4.03 1.061-1.301.708-2.44 1.694-3.413 2.957V15.89h-9.498v23.38h9.498zm18.995.73c1.507 0 2.942-.21 4.304-.628 1.362-.418 2.439-.91 3.23-1.472l-3.105-6.393c-.289.198-.688.377-1.198.536-.51.16-1.07.24-1.678.24-.99 0-1.85-.217-2.58-.65a4.449 4.449 0 01-1.678-1.724 4.806 4.806 0 01-.582-2.33c0-.669.163-1.369.49-2.1.328-.73.845-1.347 1.553-1.849s1.625-.753 2.751-.753c1.187 0 2.161.258 2.922.776l3.105-6.393c-.76-.578-1.841-1.073-3.242-1.484a15.324 15.324 0 00-4.337-.616c-1.903 0-3.665.346-5.286 1.039-1.62.692-3.029 1.628-4.224 2.808a13.053 13.053 0 00-2.785 3.995 11.177 11.177 0 00-.993 4.6c0 1.69.354 3.285 1.062 4.784.707 1.5 1.678 2.82 2.91 3.961a13.79 13.79 0 004.258 2.683c1.606.647 3.307.97 5.103.97zm14.703-.73V26.392c0-.792.16-1.477.48-2.055a3.374 3.374 0 011.347-1.347c.578-.32 1.248-.48 2.01-.48 1.156 0 2.084.354 2.784 1.062.7.708 1.05 1.648 1.05 2.82v12.876h9.498V24.338c0-1.75-.41-3.314-1.232-4.692a9.088 9.088 0 00-3.345-3.276c-1.408-.807-3.003-1.21-4.783-1.21-1.4 0-2.782.255-4.144.765a12.064 12.064 0 00-3.665 2.157V0h-9.497v39.27h9.497z"/></symbol>
</svg>